# xmcd CD database file
#
# Track frame offsets:
#	150
#	14342
#	29211
#	43663
#	56144
#	70880
#	81950
#	99346
#	116391
#	133639
#	156200
#	172366
#
# Disc length: 2538 seconds
#
# Revision: 2
# Processed by: cddbd v1.4PL0 Copyright (c) Steve Scherf et al.
# Submitted via: CDex 1.40Release
#
DISCID=a909e80c
DTITLE=Bastard Sons of Johnny Cash - Walk Alone
DYEAR=2001
DGENRE=Country
TTITLE0=Texas Sun
TTITLE1=Blade
TTITLE2=Seven Steps
TTITLE3=Interstate Cannonball
TTITLE4=Walk Alone
TTITLE5=Truckstop in La Grange
TTITLE6=440 Horses
TTITLE7=Lonesome Sky
TTITLE8=Trains Gonna Roll
TTITLE9=Memphis Woman
TTITLE10=Silver Wings
TTITLE11=Crying Over You
EXTD=YEAR: 2001 ID3G: 2
EXTT0=
EXTT1=
EXTT2=
EXTT3=
EXTT4=
EXTT5=
EXTT6=
EXTT7=
EXTT8=
EXTT9=
EXTT10=
EXTT11=
PLAYORDER=
